# xmcd CD database file
#
# Track frame offsets:
#	150
#	60161
#	112075
#	159097
#	204287
#
# Disc length: 3206 seconds
#
# Revision: 0
# Processed by: cddbd v1.5.1PL0 Copyright (c) Steve Scherf et al.
# Submitted via: CDex 1.51
#
DISCID=320c8405
DTITLE=Esbjörn Svensson Trio - JazzBaltica 2003                          [1|2]
DYEAR=2003
DGENRE=Jazz
TTITLE0=Esbjörn Svensson Trio - Serenade For The Renegade
TTITLE1=Esbjörn Svensson Trio - Definition Of A Dog
TTITLE2=Esbjörn Svensson Trio - I Mean You
TTITLE3=Esbjörn Svensson Trio - When God Created The Coffeebreak
TTITLE4=Esbjörn Svensson Trio - Pavane
EXTD=YEAR: 2003
EXTT0=
EXTT1=
EXTT2=
EXTT3=
EXTT4=
PLAYORDER=
